%
M48
M72
T01C0.02400
T02C0.02800
T03C0.03200
T04C0.03543
T05C0.03600
T06C0.04000
T07C0.04724
T08C0.11024
%
T01
X45333Y35167
X25533Y40567
X28233Y84667
X41733Y97267
X45333Y88267
X51633Y109867
X76833Y114367
X76833Y139567
X63333Y146767
X54333Y146767
X51633Y157567
X61533Y157567
X80433Y155767
X90333Y156767
X93933Y152167
X88533Y181867
X56133Y211567
X48033Y203467
X66933Y231367
X136233Y186367
X153333Y207067
X149733Y216067
X149733Y221467
X140733Y219667
X235233Y150367
X170433Y103567
X165033Y97267
X142533Y124267
X86733Y77467
X76833Y81967
X100233Y43267
X250533Y211567
T02
X289833Y213167
X289833Y220167
X232333Y37667
X225333Y37667
X226333Y14667
X233333Y14667
X61833Y204167
X61833Y211167
T03
X171333Y141667
X178833Y146667
X178833Y136667
X181833Y118667
X174333Y113667
X181833Y108667
X201833Y105667
X201833Y96667
X223833Y95667
X226833Y109667
X219333Y114667
X226833Y119667
X223833Y136667
X201833Y136667
X201833Y125667
X201833Y156667
X223833Y156667
X223833Y75667
X201833Y76667
X204833Y56667
X214833Y56667
X209833Y27667
X209833Y7667
X146833Y25667
X136833Y25667
X135833Y39667
X145833Y39667
X144833Y56667
X134833Y56667
X116833Y56667
X106833Y56667
X107833Y39667
X117833Y39667
X118833Y25667
X108833Y25667
X80833Y40667
X80833Y50667
X80833Y66667
X80833Y76667
X106833Y74667
X116833Y74667
X134833Y74667
X144833Y74667
T04
X146833Y103667
X136833Y103667
X126833Y103667
X116833Y103667
X106833Y103667
X96833Y103667
X86833Y103667
X76833Y103667
X66833Y103667
X56833Y103667
X46833Y103667
X36833Y103667
X26833Y103667
X16833Y103667
X16833Y163667
X26833Y163667
X36833Y163667
X46833Y163667
X56833Y163667
X66833Y163667
X76833Y163667
X86833Y163667
X96833Y163667
X106833Y163667
X116833Y163667
X126833Y163667
X136833Y163667
X146833Y163667
X156833Y163667
X156833Y103667
T05
X172833Y43467
X172833Y17867
T06
X237833Y63667
X247833Y63667
X257833Y63667
X272833Y89667
X272833Y109667
X292833Y109667
X292833Y89667
X205833Y176667
X195833Y176667
X185833Y176667
X175833Y176667
X152833Y177667
X142833Y177667
X132833Y177667
X108833Y207667
X108833Y217667
X108833Y227667
X108833Y237667
X108833Y247667
X81833Y244667
X71833Y244667
X61833Y244667
X51833Y244667
X41833Y244667
X31833Y244667
X21833Y244667
X11833Y244667
X12833Y186667
X22833Y186667
X32833Y186667
X42833Y186667
X52833Y186667
X62833Y186667
X72833Y186667
X185833Y206667
X185833Y216667
X185833Y226667
X185833Y236667
X185833Y246667
X227833Y243667
X237833Y243667
X247833Y243667
X257833Y243667
X267833Y243667
X277833Y243667
X287833Y243667
X297833Y243667
X297833Y198667
X287833Y198667
X277833Y198667
X267833Y198667
X257833Y198667
X247833Y198667
X237833Y198667
T07
X34833Y14667
X34833Y24667
X34833Y34667
X34833Y44667
X34833Y54667
X34833Y64667
X34833Y74667
X54833Y79667
X54833Y69667
X54833Y59667
X54833Y49667
X54833Y39667
X54833Y29667
X54833Y19667
X54833Y9667
X95833Y14667
X105833Y14667
X131833Y14667
X141833Y14667
X289833Y56667
X289833Y66667
X289833Y137667
X289833Y147667
X289833Y157667
X289833Y167667
X158833Y225667
X158833Y235667
X158833Y245667
X131833Y245667
X131833Y235667
X131833Y225667
T08
X267833Y41564
X279644Y22667
X255629Y22667
M30
