G75*
%MOIN*%
%OFA0B0*%
%FSLAX25Y25*%
%IPPOS*%
%LPD*%
%AMOC8*
5,1,8,0,0,1.08239X$1,22.5*
%
%ADD10C,0.06800*%
%ADD11OC8,0.06800*%
%ADD12OC8,0.06000*%
%ADD13C,0.06343*%
%ADD14C,0.07887*%
%ADD15C,0.06800*%
%ADD16OC8,0.15824*%
%ADD17OC8,0.09300*%
%ADD18OC8,0.05600*%
%ADD19C,0.05600*%
%ADD20C,0.04800*%
D10*
X0272833Y0109667D03*
D11*
X0292833Y0109667D03*
X0292833Y0089667D03*
X0272833Y0089667D03*
D12*
X0226833Y0109667D03*
X0219333Y0114667D03*
X0226833Y0119667D03*
X0223833Y0136667D03*
X0201833Y0136667D03*
X0201833Y0125667D03*
X0201833Y0105667D03*
X0201833Y0096667D03*
X0223833Y0095667D03*
X0223833Y0075667D03*
X0201833Y0076667D03*
X0204833Y0056667D03*
X0214833Y0056667D03*
X0209833Y0027667D03*
X0209833Y0007667D03*
X0146833Y0025667D03*
X0136833Y0025667D03*
X0135833Y0039667D03*
X0145833Y0039667D03*
X0144833Y0056667D03*
X0134833Y0056667D03*
X0116833Y0056667D03*
X0106833Y0056667D03*
X0107833Y0039667D03*
X0117833Y0039667D03*
X0118833Y0025667D03*
X0108833Y0025667D03*
X0080833Y0040667D03*
X0080833Y0050667D03*
X0080833Y0066667D03*
X0080833Y0076667D03*
X0106833Y0074667D03*
X0116833Y0074667D03*
X0134833Y0074667D03*
X0144833Y0074667D03*
X0181833Y0108667D03*
X0174333Y0113667D03*
X0181833Y0118667D03*
X0178833Y0136667D03*
X0171333Y0141667D03*
X0178833Y0146667D03*
X0201833Y0156667D03*
X0223833Y0156667D03*
D13*
X0156833Y0160895D02*
X0156833Y0166438D01*
X0146833Y0166438D02*
X0146833Y0160895D01*
X0136833Y0160895D02*
X0136833Y0166438D01*
X0126833Y0166438D02*
X0126833Y0160895D01*
X0116833Y0160895D02*
X0116833Y0166438D01*
X0106833Y0166438D02*
X0106833Y0160895D01*
X0096833Y0160895D02*
X0096833Y0166438D01*
X0086833Y0166438D02*
X0086833Y0160895D01*
X0076833Y0160895D02*
X0076833Y0166438D01*
X0066833Y0166438D02*
X0066833Y0160895D01*
X0056833Y0160895D02*
X0056833Y0166438D01*
X0046833Y0166438D02*
X0046833Y0160895D01*
X0036833Y0160895D02*
X0036833Y0166438D01*
X0026833Y0166438D02*
X0026833Y0160895D01*
X0016833Y0160895D02*
X0016833Y0166438D01*
X0016833Y0106438D02*
X0016833Y0100895D01*
X0026833Y0100895D02*
X0026833Y0106438D01*
X0036833Y0106438D02*
X0036833Y0100895D01*
X0046833Y0100895D02*
X0046833Y0106438D01*
X0056833Y0106438D02*
X0056833Y0100895D01*
X0066833Y0100895D02*
X0066833Y0106438D01*
X0076833Y0106438D02*
X0076833Y0100895D01*
X0086833Y0100895D02*
X0086833Y0106438D01*
X0096833Y0106438D02*
X0096833Y0100895D01*
X0106833Y0100895D02*
X0106833Y0106438D01*
X0116833Y0106438D02*
X0116833Y0100895D01*
X0126833Y0100895D02*
X0126833Y0106438D01*
X0136833Y0106438D02*
X0136833Y0100895D01*
X0146833Y0100895D02*
X0146833Y0106438D01*
X0156833Y0106438D02*
X0156833Y0100895D01*
D14*
X0038377Y0014667D02*
X0031290Y0014667D01*
X0031290Y0024667D02*
X0038377Y0024667D01*
X0038377Y0034667D02*
X0031290Y0034667D01*
X0031290Y0044667D02*
X0038377Y0044667D01*
X0038377Y0054667D02*
X0031290Y0054667D01*
X0031290Y0064667D02*
X0038377Y0064667D01*
X0038377Y0074667D02*
X0031290Y0074667D01*
X0051290Y0079667D02*
X0058377Y0079667D01*
X0058377Y0069667D02*
X0051290Y0069667D01*
X0051290Y0059667D02*
X0058377Y0059667D01*
X0058377Y0049667D02*
X0051290Y0049667D01*
X0051290Y0039667D02*
X0058377Y0039667D01*
X0058377Y0029667D02*
X0051290Y0029667D01*
X0051290Y0019667D02*
X0058377Y0019667D01*
X0058377Y0009667D02*
X0051290Y0009667D01*
X0095833Y0011123D02*
X0095833Y0018210D01*
X0105833Y0018210D02*
X0105833Y0011123D01*
X0131833Y0011123D02*
X0131833Y0018210D01*
X0141833Y0018210D02*
X0141833Y0011123D01*
X0286290Y0056667D02*
X0293377Y0056667D01*
X0293377Y0066667D02*
X0286290Y0066667D01*
X0286290Y0137667D02*
X0293377Y0137667D01*
X0293377Y0147667D02*
X0286290Y0147667D01*
X0286290Y0157667D02*
X0293377Y0157667D01*
X0293377Y0167667D02*
X0286290Y0167667D01*
X0162377Y0225667D02*
X0155290Y0225667D01*
X0155290Y0235667D02*
X0162377Y0235667D01*
X0162377Y0245667D02*
X0155290Y0245667D01*
X0135377Y0245667D02*
X0128290Y0245667D01*
X0128290Y0235667D02*
X0135377Y0235667D01*
X0135377Y0225667D02*
X0128290Y0225667D01*
D15*
X0111833Y0227667D02*
X0105833Y0227667D01*
X0105833Y0237667D02*
X0111833Y0237667D01*
X0111833Y0247667D02*
X0105833Y0247667D01*
X0081833Y0247667D02*
X0081833Y0241667D01*
X0071833Y0241667D02*
X0071833Y0247667D01*
X0061833Y0247667D02*
X0061833Y0241667D01*
X0051833Y0241667D02*
X0051833Y0247667D01*
X0041833Y0247667D02*
X0041833Y0241667D01*
X0031833Y0241667D02*
X0031833Y0247667D01*
X0021833Y0247667D02*
X0021833Y0241667D01*
X0011833Y0241667D02*
X0011833Y0247667D01*
X0012833Y0189667D02*
X0012833Y0183667D01*
X0022833Y0183667D02*
X0022833Y0189667D01*
X0032833Y0189667D02*
X0032833Y0183667D01*
X0042833Y0183667D02*
X0042833Y0189667D01*
X0052833Y0189667D02*
X0052833Y0183667D01*
X0062833Y0183667D02*
X0062833Y0189667D01*
X0072833Y0189667D02*
X0072833Y0183667D01*
X0105833Y0207667D02*
X0111833Y0207667D01*
X0111833Y0217667D02*
X0105833Y0217667D01*
X0132833Y0180667D02*
X0132833Y0174667D01*
X0142833Y0174667D02*
X0142833Y0180667D01*
X0152833Y0180667D02*
X0152833Y0174667D01*
X0175833Y0173667D02*
X0175833Y0179667D01*
X0185833Y0179667D02*
X0185833Y0173667D01*
X0195833Y0173667D02*
X0195833Y0179667D01*
X0205833Y0179667D02*
X0205833Y0173667D01*
X0237833Y0195667D02*
X0237833Y0201667D01*
X0247833Y0201667D02*
X0247833Y0195667D01*
X0257833Y0195667D02*
X0257833Y0201667D01*
X0267833Y0201667D02*
X0267833Y0195667D01*
X0277833Y0195667D02*
X0277833Y0201667D01*
X0287833Y0201667D02*
X0287833Y0195667D01*
X0297833Y0195667D02*
X0297833Y0201667D01*
X0297833Y0240667D02*
X0297833Y0246667D01*
X0287833Y0246667D02*
X0287833Y0240667D01*
X0277833Y0240667D02*
X0277833Y0246667D01*
X0267833Y0246667D02*
X0267833Y0240667D01*
X0257833Y0240667D02*
X0257833Y0246667D01*
X0247833Y0246667D02*
X0247833Y0240667D01*
X0237833Y0240667D02*
X0237833Y0246667D01*
X0227833Y0246667D02*
X0227833Y0240667D01*
X0188833Y0236667D02*
X0182833Y0236667D01*
X0182833Y0226667D02*
X0188833Y0226667D01*
X0188833Y0216667D02*
X0182833Y0216667D01*
X0182833Y0206667D02*
X0188833Y0206667D01*
X0188833Y0246667D02*
X0182833Y0246667D01*
X0237833Y0066667D02*
X0237833Y0060667D01*
X0247833Y0060667D02*
X0247833Y0066667D01*
X0257833Y0066667D02*
X0257833Y0060667D01*
D16*
X0267833Y0041564D03*
X0279644Y0022667D03*
X0255629Y0022667D03*
D17*
X0172833Y0017867D03*
X0172833Y0043467D03*
D18*
X0232333Y0037667D03*
X0233333Y0014667D03*
X0061833Y0211167D03*
X0289833Y0220167D03*
D19*
X0289833Y0213167D03*
X0225333Y0037667D03*
X0226333Y0014667D03*
X0061833Y0204167D03*
D20*
X0056133Y0211567D03*
X0048033Y0203467D03*
X0066933Y0231367D03*
X0088533Y0181867D03*
X0090333Y0156767D03*
X0093933Y0152167D03*
X0080433Y0155767D03*
X0063333Y0146767D03*
X0054333Y0146767D03*
X0051633Y0157567D03*
X0061533Y0157567D03*
X0076833Y0139567D03*
X0076833Y0114367D03*
X0051633Y0109867D03*
X0041733Y0097267D03*
X0045333Y0088267D03*
X0028233Y0084667D03*
X0025533Y0040567D03*
X0045333Y0035167D03*
X0086733Y0077467D03*
X0076833Y0081967D03*
X0100233Y0043267D03*
X0165033Y0097267D03*
X0170433Y0103567D03*
X0142533Y0124267D03*
X0136233Y0186367D03*
X0153333Y0207067D03*
X0149733Y0216067D03*
X0149733Y0221467D03*
X0140733Y0219667D03*
X0235233Y0150367D03*
X0250533Y0211567D03*
M02*
